/usr/bin/start-video-rec.sh: line 93: kill: (500) - No such process
ffmpeg version 2.8.17-0ubuntu0.1 Copyright (c) 2000-2020 the FFmpeg developers
  built with gcc 5.4.0 (Ubuntu 5.4.0-6ubuntu1~16.04.12) 20160609
  configuration: --prefix=/usr --extra-version=0ubuntu0.1 --build-suffix=-ffmpeg --toolchain=hardened --libdir=/usr/lib/x86_64-linux-gnu --incdir=/usr/include/x86_64-linux-gnu --cc=cc --cxx=g++ --enable-gpl --enable-shared --disable-stripping --disable-decoder=libopenjpeg --disable-decoder=libschroedinger --enable-avresample --enable-avisynth --enable-gnutls --enable-ladspa --enable-libass --enable-libbluray --enable-libbs2b --enable-libcaca --enable-libcdio --enable-libflite --enable-libfontconfig --enable-libfreetype --enable-libfribidi --enable-libgme --enable-libgsm --enable-libmodplug --enable-libmp3lame --enable-libopenjpeg --enable-libopus --enable-libpulse --enable-librtmp --enable-libschroedinger --enable-libshine --enable-libsnappy --enable-libsoxr --enable-libspeex --enable-libssh --enable-libtheora --enable-libtwolame --enable-libvorbis --enable-libvpx --enable-libwavpack --enable-libwebp --enable-libx265 --enable-libxvid --enable-libzvbi --enable-openal --enable-opengl --enable-x11grab --enable-libdc1394 --enable-libiec61883 --enable-libzmq --enable-frei0r --enable-libx264 --enable-libopencv
  libavutil      54. 31.100 / 54. 31.100
  libavcodec     56. 60.100 / 56. 60.100
  libavformat    56. 40.101 / 56. 40.101
  libavdevice    56.  4.100 / 56.  4.100
  libavfilter     5. 40.101 /  5. 40.101
  libavresample   2.  1.  0 /  2.  1.  0
  libswscale      3.  1.101 /  3.  1.101
  libswresample   1.  2.101 /  1.  2.101
  libpostproc    53.  3.100 / 53.  3.100
Input #0, matroska,webm, from '/home/seluser/videos/vid_chrome_or_firefox_40000.mkv':
  Metadata:
    ENCODER         : Lavf56.40.101
  Duration: 00:01:58.10, start: 0.000000, bitrate: 33 kb/s
    Stream #0:0: Video: h264 (Constrained Baseline), yuv420p, 1366x768, SAR 1:1 DAR 683:384, 10 fps, 10 tbr, 1k tbn, 20 tbc (default)
    Metadata:
      ENCODER         : Lavc56.60.100 libx264
      DURATION        : 00:01:58.100000000
[libx264 @ 0x161eb60] using SAR=1/1
[libx264 @ 0x161eb60] using cpu capabilities: MMX2 SSE2Fast SSSE3 SSE4.2 AVX FMA3 AVX2 LZCNT BMI2
[libx264 @ 0x161eb60] profile Constrained Baseline, level 3.2
[libx264 @ 0x161eb60] 264 - core 148 r2643 5c65704 - H.264/MPEG-4 AVC codec - Copyleft 2003-2015 - http://www.videolan.org/x264.html - options: cabac=0 ref=1 deblock=0:0:0 analyse=0:0 me=dia subme=0 psy=1 psy_rd=1.00:0.00 mixed_ref=0 me_range=16 chroma_me=1 trellis=0 8x8dct=0 cqm=0 deadzone=21,11 fast_pskip=1 chroma_qp_offset=0 threads=3 lookahead_threads=1 sliced_threads=0 nr=0 decimate=1 interlaced=0 bluray_compat=0 constrained_intra=0 bframes=0 weightp=0 keyint=250 keyint_min=10 scenecut=0 intra_refresh=0 rc=crf mbtree=0 crf=23.0 qcomp=0.60 qpmin=0 qpmax=69 qpstep=4 ip_ratio=1.40 aq=0
Output #0, mp4, to '/home/seluser/videos/vid_chrome_or_firefox_40000.mp4':
  Metadata:
    encoder         : Lavf56.40.101
    Stream #0:0: Video: h264 (libx264) ([33][0][0][0] / 0x0021), yuv420p, 1366x768 [SAR 1:1 DAR 683:384], q=-1--1, 10 fps, 10240 tbn, 10 tbc (default)
    Metadata:
      DURATION        : 00:01:58.100000000
      encoder         : Lavc56.60.100 libx264
Stream mapping:
  Stream #0:0 -> #0:0 (h264 (native) -> h264 (libx264))
Press [q] to stop, [?] for help
frame=   76 fps=0.0 q=9.0 size=     129kB time=00:00:07.20 bitrate= 146.3kbits/s    
frame=  157 fps=154 q=9.0 size=     132kB time=00:00:15.30 bitrate=  70.4kbits/s    
frame=  215 fps=140 q=9.0 size=     134kB time=00:00:21.10 bitrate=  51.9kbits/s    
frame=  271 fps=132 q=9.0 size=     209kB time=00:00:26.70 bitrate=  64.0kbits/s    
frame=  334 fps=131 q=9.0 size=     212kB time=00:00:33.00 bitrate=  52.6kbits/s    
frame=  388 fps=127 q=9.0 size=     214kB time=00:00:38.40 bitrate=  45.7kbits/s    
frame=  442 fps=124 q=9.0 size=     217kB time=00:00:43.80 bitrate=  40.6kbits/s    
frame=  506 fps=124 q=13.0 size=     290kB time=00:00:50.20 bitrate=  47.4kbits/s    
frame=  562 fps=123 q=9.0 size=     293kB time=00:00:55.80 bitrate=  43.0kbits/s    
frame=  594 fps=115 q=9.0 size=     294kB time=00:00:59.00 bitrate=  40.9kbits/s    
frame=  626 fps=110 q=9.0 size=     296kB time=00:01:02.20 bitrate=  39.0kbits/s    
frame=  650 fps=104 q=9.0 size=     297kB time=00:01:04.60 bitrate=  37.7kbits/s    
frame=  682 fps=101 q=9.0 size=     299kB time=00:01:07.80 bitrate=  36.1kbits/s    
frame=  705 fps= 97 q=9.0 size=     300kB time=00:01:10.10 bitrate=  35.0kbits/s    
frame=  723 fps= 93 q=9.0 size=     301kB time=00:01:11.90 bitrate=  34.2kbits/s    
frame=  756 fps= 91 q=13.0 size=     372kB time=00:01:15.20 bitrate=  40.6kbits/s    
frame=  792 fps= 90 q=9.0 size=     374kB time=00:01:18.80 bitrate=  38.9kbits/s    
frame=  816 fps= 88 q=9.0 size=     375kB time=00:01:21.20 bitrate=  37.9kbits/s    
frame=  837 fps= 85 q=9.0 size=     376kB time=00:01:23.30 bitrate=  37.0kbits/s    
frame=  855 fps= 83 q=9.0 size=     377kB time=00:01:25.10 bitrate=  36.3kbits/s    
frame=  870 fps= 80 q=9.0 size=     378kB time=00:01:26.60 bitrate=  35.8kbits/s    
frame=  906 fps= 80 q=9.0 size=     380kB time=00:01:30.20 bitrate=  34.5kbits/s    
frame=  966 fps= 81 q=9.0 size=     382kB time=00:01:36.20 bitrate=  32.6kbits/s    
frame= 1029 fps= 83 q=9.0 size=     456kB time=00:01:42.50 bitrate=  36.4kbits/s    
frame= 1056 fps= 82 q=9.0 size=     457kB time=00:01:45.20 bitrate=  35.6kbits/s    
frame= 1093 fps= 82 q=9.0 size=     459kB time=00:01:48.90 bitrate=  34.5kbits/s    
frame= 1125 fps= 81 q=9.0 size=     460kB time=00:01:52.10 bitrate=  33.6kbits/s    
frame= 1157 fps= 80 q=9.0 size=     462kB time=00:01:55.30 bitrate=  32.8kbits/s    
frame= 1181 fps= 79 q=-1.0 Lsize=     473kB time=00:01:58.10 bitrate=  32.8kbits/s    
video:468kB audio:0kB subtitle:0kB other streams:0kB global headers:0kB muxing overhead: 1.159982%
[libx264 @ 0x161eb60] frame I:5     Avg QP: 8.80  size: 60623
[libx264 @ 0x161eb60] frame P:1176  Avg QP: 9.17  size:   149
[libx264 @ 0x161eb60] mb I  I16..4: 100.0%  0.0%  0.0%
[libx264 @ 0x161eb60] mb P  I16..4:  0.4%  0.0%  0.0%  P16..4:  0.1%  0.0%  0.0%  0.0%  0.0%    skip:99.6%
[libx264 @ 0x161eb60] coded y,uvDC,uvAC intra: 7.4% 4.7% 4.4% inter: 0.0% 0.0% 0.0%
[libx264 @ 0x161eb60] i16 v,h,dc,p: 82% 16%  1%  0%
[libx264 @ 0x161eb60] i8c dc,h,v,p: 84% 13%  3%  0%
[libx264 @ 0x161eb60] kb/s:32.41
